<svg xmlns="http://www.w3.org/2000/svg" viewBox="0 0 24 24" fill="none" stroke="#14b8a6" stroke-width="1.5" stroke-linecap="round" stroke-linejoin="round">
  <!-- Coffee Cup Body -->
  <path d="M18 8h1a4 4 0 0 1 0 8h-1"></path>
  <path d="M2 8h16v9a4 4 0 0 1-4 4H6a4 4 0 0 1-4-4V8z"></path>
  
  <!-- Steam Curves -->
  <path d="M6 1c0 1.5 1 2 1 3"></path>
  <path d="M10 1c0 1.5 1 2 1 3"></path>
  <path d="M14 1c0 1.5 1 2 1 3"></path>

  <!-- Code Brackets on Cup -->
  <polyline points="7 13 5 15 7 17"></polyline>
  <polyline points="13 13 15 15 13 17"></polyline>
  <line x1="11" y1="12" x2="9" y2="18"></line>
</svg>
